<?xml version="1.0" encoding="UTF-8" standalone="no"?>
<!-- Created with Inkscape (http://www.inkscape.org/) -->

<svg
   width="354.99973mm"
   height="90.000038mm"
   viewBox="0 0 354.99972 90.000038"
   version="1.1"
   id="svg1"
   xmlns="http://www.w3.org/2000/svg"
   xmlns:svg="http://www.w3.org/2000/svg"
   xmlns:rdf="http://www.w3.org/1999/02/22-rdf-syntax-ns#"
   xmlns:cc="http://creativecommons.org/ns#"
   xmlns:dc="http://purl.org/dc/elements/1.1/">
  <title
     id="title7">FTC Open Alliance Official Logo Set</title>
  <defs
     id="defs1" />
  <g
     id="layer5"
     style="display:inline"
     transform="translate(-5.0000082,-104.99997)">
    <rect
       style="display:none;fill:#000000;stroke:none;stroke-width:3.175;stroke-linecap:square;paint-order:stroke markers fill"
       id="rect3"
       width="365"
       height="100"
       x="-4.8449215e-06"
       y="100" />
    <path
       style="fill:#ff6600;stroke-width:25"
       d="m 55.000018,135 10,10 24.99999,-25 5,5 v -20 h -20 l 5,5 z"
       id="path2-1-3" />
    <path
       style="fill:#f9f9f9;stroke-width:25"
       d="m 50.000008,165 10,10 h -5 v 20 h -10 v -20 h -5 z"
       id="path3-94-5" />
    <path
       style="fill:#f9f9f9;stroke-width:25"
       d="m 35.000008,150 -10,10 v -5 H 5.0000082 V 145 H 25.000008 v -5 z"
       id="path3-5-7-6" />
    <path
       id="path1-1-2"
       style="fill:#ff6600;stroke-width:25"
       d="M 50.000108,140.00009 A 10,10 0 0 0 40.000198,150 a 10,10 0 0 0 9.99991,9.9999 10,10 0 0 0 9.9999,-9.9999 10,10 0 0 0 -9.9999,-9.99991 z m 0,2.92902 6.12365,3.53519 v 7.0714 l -6.12365,3.53518 -6.12366,-3.53518 v -7.0714 z" />
    <text
       xml:space="preserve"
       style="font-style:normal;font-variant:normal;font-weight:normal;font-stretch:normal;font-size:44.1927px;line-height:1;font-family:'Aldo the Apache';-inkscape-font-specification:'Aldo the Apache';display:inline;fill:#ff6600;stroke-width:68.082"
       x="99.679932"
       y="203.20796"
       id="text7-6"
       transform="scale(1.0420921,0.95960808)"><tspan
         style="font-style:normal;font-variant:normal;font-weight:normal;font-stretch:normal;line-height:1;font-family:'Aldo the Apache';-inkscape-font-specification:'Aldo the Apache';fill:#ff6600;stroke-width:68.082"
         x="99.679932"
         y="203.20796"
         id="tspan8-1">OPEN ALLIANCE</tspan></text>
    <text
       xml:space="preserve"
       style="font-size:77.8977px;line-height:1;font-family:'Aldo the Apache';-inkscape-font-specification:'Aldo the Apache';fill:#ffffff;stroke-width:120.007"
       x="103.09821"
       y="160"
       id="text1"><tspan
         id="tspan1"
         style="fill:#ffffff;stroke-width:120.007"
         x="103.09821"
         y="160">FTC</tspan></text>
  </g>
  <metadata
     id="metadata2">
    <rdf:RDF>
      <cc:Work
         rdf:about="">
        <dc:title>FTC Open Alliance Official Logo Set</dc:title>
        <dc:creator>
          <cc:Agent>
            <dc:title>Hamid Hussain</dc:title>
          </cc:Agent>
        </dc:creator>
        <dc:publisher>
          <cc:Agent>
            <dc:title>Electric Mayhem Robotics, FTC Open Alliance</dc:title>
          </cc:Agent>
        </dc:publisher>
      </cc:Work>
    </rdf:RDF>
  </metadata>
</svg>
