<?xml version="1.0" encoding="UTF-8" standalone="no"?>
<!-- Created with Inkscape (http://www.inkscape.org/) -->

<svg
   width="245.97926mm"
   height="90.000107mm"
   viewBox="0 0 245.97926 90.000107"
   version="1.1"
   id="svg1"
   xmlns="http://www.w3.org/2000/svg"
   xmlns:svg="http://www.w3.org/2000/svg"
   xmlns:rdf="http://www.w3.org/1999/02/22-rdf-syntax-ns#"
   xmlns:cc="http://creativecommons.org/ns#"
   xmlns:dc="http://purl.org/dc/elements/1.1/">
  <title
     id="title7">FTC Open Alliance Official Logo Set</title>
  <defs
     id="defs1" />
  <g
     id="layer4"
     style="display:inline"
     transform="translate(-5.0000112,-4.9999422)">
    <rect
       style="display:none;fill:#000000;stroke:none;stroke-width:3.175;stroke-linecap:square;paint-order:stroke markers fill"
       id="rect2"
       width="255.4554"
       height="100"
       x="-4.8449215e-06"
       y="2.3706031e-07" />
    <path
       style="fill:#ff6600;stroke-width:25"
       d="m 55.000015,34.999999 9.999999,10 24.999997,-25 5,5 V 4.9999995 h -20 l 5,5 z"
       id="path2-1" />
    <path
       style="fill:#f9f9f9;stroke-width:25"
       d="m 50.000011,64.999999 10.000001,10 h -5.000001 v 20 H 45.00001 v -20 h -5 z"
       id="path3-94" />
    <path
       style="fill:#f9f9f9;stroke-width:25"
       d="m 35.000011,49.999999 -10.000001,10 v -5 H 5.0000112 v -10 H 25.00001 v -5 z"
       id="path3-5-7" />
    <text
       xml:space="preserve"
       style="font-style:normal;font-variant:normal;font-weight:normal;font-stretch:normal;font-size:40.6705px;line-height:0.8;font-family:'Aldo the Apache';-inkscape-font-specification:'Aldo the Apache';display:none;fill:#f9f9f9;stroke-width:62.6556"
       x="99.76593"
       y="33.925999"
       id="text7"
       transform="scale(1.0420921,0.95960808)"><tspan
         id="tspan7"
         style="font-style:normal;font-variant:normal;font-weight:normal;font-stretch:normal;line-height:0.8;font-family:'Aldo the Apache';-inkscape-font-specification:'Aldo the Apache';fill:#f9f9f9;stroke-width:62.6556"
         x="0"
         y="0">FTC</tspan><tspan
         style="font-style:normal;font-variant:normal;font-weight:normal;font-stretch:normal;line-height:0.8;font-family:'Aldo the Apache';-inkscape-font-specification:'Aldo the Apache';fill:#f9f9f9;stroke-width:62.6556"
         x="0"
         y="0"
         id="tspan9">OPEN</tspan><tspan
         style="font-style:normal;font-variant:normal;font-weight:normal;font-stretch:normal;line-height:0.8;font-family:'Aldo the Apache';-inkscape-font-specification:'Aldo the Apache';fill:#f9f9f9;stroke-width:62.6556"
         x="0"
         y="0"
         id="tspan8">ALLIANCE</tspan></text>
    <path
       id="path1-1"
       style="fill:#ff6600;stroke-width:25"
       d="m 50.000105,40.000089 a 10,10 0 0 0 -9.999907,9.99991 10,10 0 0 0 9.999907,9.9999 10,10 0 0 0 9.999906,-9.9999 10,10 0 0 0 -9.999906,-9.99991 z m 0,2.92902 6.123657,3.53519 v 7.0714 l -6.123657,3.53518 -6.123657,-3.53518 v -7.0714 z" />
    <g
       id="text5"
       style="font-size:40.6705px;line-height:0.8;font-family:'Aldo the Apache';-inkscape-font-specification:'Aldo the Apache';fill:#f9f9f9;stroke-width:62.6556"
       transform="scale(1.0420921,0.95960808)"
       aria-label="FTC&#10;OPEN&#10;ALLIANCE">
      <path
         d="m 106.77603,21.573922 v 12.352077 h -6.01717 V 9.182129 l 3.97173,-3.9717287 h 9.75059 v 5.4611267 h -7.70515 v 5.540562 h 7.1094 v 5.361833 z m 27.30564,-10.902395 h -5.42141 v 23.254472 h -6.05689 V 10.671527 h -5.62 V 5.2104003 h 17.0983 z m 13.32515,17.813203 v -3.495121 h 6.03703 v 4.964661 l -3.97173,3.971729 H 136.52428 V 9.1622704 l 4.28947,-3.9518701 h 12.6301 V 16.05322 h -6.03703 v -5.381693 h -4.84551 V 28.48473 Z"
         id="path5" />
      <path
         id="path7"
         d="m 106.79589,98.998802 h -6.03703 V 74.830833 l 4.62707,-4.547629 h 12.55066 v 28.715598 h -6.01717 v -9.432855 h -5.12353 z m 5.12353,-14.893982 v -8.360489 h -5.12353 v 8.360489 z m 8.69808,14.893982 V 70.283204 h 6.01717 v 23.27433 h 8.42007 v 5.441268 z m 17.01886,0 V 70.283204 h 6.01717 v 23.27433 h 8.42007 v 5.441268 z m 27.00776,-5.441268 v 5.441268 h -9.9889 v -5.441268 h 1.98587 V 75.724472 h -1.98587 v -5.441268 h 9.9889 v 5.441268 h -1.98587 v 17.833062 z m 8.61865,5.441268 h -6.03703 V 74.830833 l 4.62707,-4.547629 h 12.55066 v 28.715598 h -6.01717 v -9.432855 h -5.12353 z M 178.3863,84.10482 v -8.360489 h -5.12353 v 8.360489 z m 20.49412,2.661058 V 70.283204 h 5.67957 v 28.715598 h -5.95759 l -5.87816,-16.482674 v 16.482674 h -5.63985 V 70.283204 h 5.95759 z m 19.38203,6.791656 v -3.495121 h 6.03703 v 4.964661 l -3.97173,3.971728 H 207.37992 V 74.235074 l 4.28946,-3.95187 h 12.6301 v 10.842819 h -6.03703 v -5.381692 h -4.8455 v 17.813203 z m 8.43993,-23.27433 h 13.94077 v 5.461127 h -7.98318 v 5.540561 h 7.58601 v 5.361834 h -7.50657 v 6.910808 h 8.10233 v 5.441268 H 226.70238 Z M 100.75886,37.746802 h 17.3366 v 28.715599 h -17.3366 z m 6.03703,23.27433 h 5.2824 V 43.207929 h -5.2824 z m 19.95794,5.441269 h -6.01717 V 41.797965 l 4.34904,-4.051163 h 12.31236 v 21.427476 h -10.64423 z m 4.62706,-12.788967 V 43.207929 h -4.62706 v 10.465505 z m 8.57893,-15.926632 h 13.94077 v 5.461127 h -7.98317 v 5.540562 h 7.586 v 5.361833 h -7.50657 v 6.910808 h 8.10233 v 5.441269 h -14.13936 z m 28.1397,16.482674 V 37.746802 h 5.67957 v 28.715599 h -5.95759 l -5.87816,-16.482674 v 16.482674 h -5.63985 V 37.746802 h 5.95759 z"
         style="fill:#ff6600" />
    </g>
  </g>
  <metadata
     id="metadata2">
    <rdf:RDF>
      <cc:Work
         rdf:about="">
        <dc:title>FTC Open Alliance Official Logo Set</dc:title>
        <dc:creator>
          <cc:Agent>
            <dc:title>Hamid Hussain</dc:title>
          </cc:Agent>
        </dc:creator>
        <dc:publisher>
          <cc:Agent>
            <dc:title>Electric Mayhem Robotics, FTC Open Alliance</dc:title>
          </cc:Agent>
        </dc:publisher>
      </cc:Work>
    </rdf:RDF>
  </metadata>
</svg>
