<?xml version="1.0" encoding="UTF-8" standalone="no"?>
<!-- Created with Inkscape (http://www.inkscape.org/) -->

<svg
   width="90mm"
   height="90mm"
   viewBox="0 0 89.999999 90"
   version="1.1"
   id="svg1"
   xmlns="http://www.w3.org/2000/svg"
   xmlns:svg="http://www.w3.org/2000/svg"
   xmlns:rdf="http://www.w3.org/1999/02/22-rdf-syntax-ns#"
   xmlns:cc="http://creativecommons.org/ns#"
   xmlns:dc="http://purl.org/dc/elements/1.1/">
  <title
     id="title7">FTC Open Alliance Official Logo Set</title>
  <defs
     id="defs1" />
  <g
     id="layer1"
     style="display:inline"
     transform="translate(195.00002,-5.0000005)">
    <rect
       style="display:none;fill:#000000;stroke:none;stroke-width:3.175;stroke-linecap:square;paint-order:stroke markers fill"
       id="rect1"
       width="100"
       height="100"
       x="-200.00002"
       y="2.3706056e-07" />
    <path
       id="path1"
       style="fill:#ff6600;stroke-width:25"
       d="m -149.99997,40.000142 a 10,10 0 0 0 -9.99991,9.999907 10,10 0 0 0 9.99991,9.999906 10,10 0 0 0 9.99991,-9.999906 10,10 0 0 0 -9.99991,-9.999907 z m 0,2.929021 6.12366,3.535184 v 7.071403 l -6.12366,3.535185 -6.12366,-3.535185 v -7.071403 z" />
    <path
       style="fill:#ff6600;stroke-width:25"
       d="m -145.00002,35.000002 10,9.999998 25,-25 5,5 V 5.0000005 h -20 l 5,4.9999995 z"
       id="path2" />
    <path
       style="fill:#f9f9f9;stroke-width:25"
       d="m -150.00002,64.999999 10,10.000001 h -5 v 19.999999 h -10 V 75 h -5 z"
       id="path3" />
    <path
       style="fill:#f9f9f9;stroke-width:25"
       d="m -165.00002,50 -10,10.000001 V 55 h -20 V 44.999999 h 20 v -5 z"
       id="path3-5" />
  </g>
  <metadata
     id="metadata2">
    <rdf:RDF>
      <cc:Work
         rdf:about="">
        <dc:title>FTC Open Alliance Official Logo Set</dc:title>
        <dc:creator>
          <cc:Agent>
            <dc:title>Hamid Hussain</dc:title>
          </cc:Agent>
        </dc:creator>
        <dc:publisher>
          <cc:Agent>
            <dc:title>Electric Mayhem Robotics, FTC Open Alliance</dc:title>
          </cc:Agent>
        </dc:publisher>
      </cc:Work>
    </rdf:RDF>
  </metadata>
</svg>
