<?xml version="1.0" encoding="UTF-8" standalone="no"?>
<!-- Created with Inkscape (http://www.inkscape.org/) -->

<svg
   width="100mm"
   height="100mm"
   viewBox="0 0 100 100"
   version="1.1"
   id="svg1"
   inkscape:version="1.3.2 (091e20ef0f, 2023-11-25)"
   sodipodi:docname="FTCOALogos.svg"
   xmlns:inkscape="http://www.inkscape.org/namespaces/inkscape"
   xmlns:sodipodi="http://sodipodi.sourceforge.net/DTD/sodipodi-0.dtd"
   xmlns="http://www.w3.org/2000/svg"
   xmlns:svg="http://www.w3.org/2000/svg"
   xmlns:rdf="http://www.w3.org/1999/02/22-rdf-syntax-ns#"
   xmlns:cc="http://creativecommons.org/ns#"
   xmlns:dc="http://purl.org/dc/elements/1.1/">
  <title
     id="title7">FTC Open Alliance Official Logo Set</title>
  <sodipodi:namedview
     id="namedview1"
     pagecolor="#ffffff"
     bordercolor="#999999"
     borderopacity="1"
     inkscape:showpageshadow="false"
     inkscape:pageopacity="0"
     inkscape:pagecheckerboard="false"
     inkscape:deskcolor="#d1d1d1"
     inkscape:document-units="mm"
     showgrid="true"
     inkscape:zoom="0.5"
     inkscape:cx="1079"
     inkscape:cy="674"
     inkscape:window-width="1707"
     inkscape:window-height="989"
     inkscape:window-x="0"
     inkscape:window-y="0"
     inkscape:window-maximized="1"
     inkscape:current-layer="layer6"
     labelstyle="default"
     showguides="true"
     showborder="false"
     borderlayer="false"
     inkscape:clip-to-page="false"
     inkscape:lockguides="true"
     inkscape:export-bgcolor="#00000000">
    <inkscape:grid
       id="grid1"
       units="mm"
       originx="200"
       originy="-4.7412087e-07"
       spacingx="0.99999999"
       spacingy="0.99999999"
       empcolor="#0099e5"
       empopacity="0.30196078"
       color="#0099e5"
       opacity="0.14901961"
       empspacing="5"
       dotted="false"
       gridanglex="30"
       gridanglez="30"
       visible="true"
       enabled="true" />
    <inkscape:page
       x="0"
       y="0"
       width="100"
       height="100"
       id="page4"
       margin="0"
       bleed="0"
       inkscape:export-filename="../pdf/FTCOALogos.pdf"
       inkscape:export-xdpi="96"
       inkscape:export-ydpi="96" />
    <inkscape:page
       x="200"
       y="0"
       width="255.45541"
       height="100"
       id="page6"
       margin="0 0 0 0"
       bleed="0"
       inkscape:export-filename="ftcoalogos/FTCOALogos_Page 2.png"
       inkscape:export-xdpi="1040.38"
       inkscape:export-ydpi="1040.38" />
    <inkscape:page
       x="200"
       y="200"
       width="370"
       height="100"
       id="page7"
       margin="0 0 0 0"
       bleed="0" />
    <inkscape:page
       x="200"
       y="100"
       width="365"
       height="100"
       id="page1"
       margin="0 0 0 0"
       bleed="0" />
    <inkscape:page
       x="100"
       y="0"
       width="100"
       height="140"
       id="page2"
       margin="0"
       bleed="0"
       inkscape:export-filename="../pdf/FTCOALogos.pdf"
       inkscape:export-xdpi="96"
       inkscape:export-ydpi="96" />
    <sodipodi:guide
       position="200.00001,166.41681"
       orientation="1,0"
       id="guide2"
       inkscape:locked="true" />
    <sodipodi:guide
       position="215.94005,99.999999"
       orientation="0,-1"
       id="guide3"
       inkscape:locked="true" />
  </sodipodi:namedview>
  <defs
     id="defs1">
    <rect
       x="377.95276"
       y="420.90808"
       width="377.95276"
       height="70.430511"
       id="rect6" />
    <rect
       x="377.95276"
       y="420.90808"
       width="377.95276"
       height="70.430511"
       id="rect6-1" />
  </defs>
  <g
     inkscape:label="ICON"
     inkscape:groupmode="layer"
     id="layer1"
     style="display:inline"
     transform="translate(200.00002)">
    <rect
       style="display:inline;fill:#000000;stroke:none;stroke-width:3.175;stroke-linecap:square;paint-order:stroke markers fill"
       id="rect1"
       width="100"
       height="100"
       x="-200.00002"
       y="2.3706056e-07" />
    <path
       id="path1"
       style="fill:#ff6600;stroke-width:25"
       d="m -149.99997,40.000142 a 10,10 0 0 0 -9.99991,9.999907 10,10 0 0 0 9.99991,9.999906 10,10 0 0 0 9.99991,-9.999906 10,10 0 0 0 -9.99991,-9.999907 z m 0,2.929021 6.12366,3.535184 v 7.071403 l -6.12366,3.535185 -6.12366,-3.535185 v -7.071403 z" />
    <path
       style="fill:#ff6600;stroke-width:25"
       d="m -145.00002,35.000002 10,9.999998 25,-25 5,5 V 5.0000005 h -20 l 5,4.9999995 z"
       id="path2"
       sodipodi:nodetypes="cccccccc" />
    <path
       style="fill:#f9f9f9;stroke-width:25"
       d="m -150.00002,64.999999 10,10.000001 h -5 v 19.999999 h -10 V 75 h -5 z"
       id="path3" />
    <path
       style="fill:#f9f9f9;stroke-width:25"
       d="m -165.00002,50 -10,10.000001 V 55 h -20 V 44.999999 h 20 v -5 z"
       id="path3-5" />
  </g>
  <g
     inkscape:groupmode="layer"
     id="layer4"
     inkscape:label="3STACK-HORIZONTAL"
     style="display:inline"
     transform="translate(200.00002)">
    <rect
       style="display:inline;fill:#000000;stroke:none;stroke-width:3.175;stroke-linecap:square;paint-order:stroke markers fill"
       id="rect2"
       width="255.4554"
       height="100"
       x="-4.8449215e-06"
       y="2.3706031e-07" />
    <path
       style="fill:#ff6600;stroke-width:25"
       d="m 55.000015,34.999999 9.999999,10 24.999997,-25 5,5 V 4.9999995 h -20 l 5,5 z"
       id="path2-1"
       sodipodi:nodetypes="cccccccc" />
    <path
       style="fill:#f9f9f9;stroke-width:25"
       d="m 50.000011,64.999999 10.000001,10 h -5.000001 v 20 H 45.00001 v -20 h -5 z"
       id="path3-94" />
    <path
       style="fill:#f9f9f9;stroke-width:25"
       d="m 35.000011,49.999999 -10.000001,10 v -5 H 5.0000112 v -10 H 25.00001 v -5 z"
       id="path3-5-7" />
    <text
       xml:space="preserve"
       style="font-style:normal;font-variant:normal;font-weight:normal;font-stretch:normal;font-size:40.6705px;line-height:0.8;font-family:'Aldo the Apache';-inkscape-font-specification:'Aldo the Apache';display:none;fill:#f9f9f9;stroke-width:62.6556"
       x="99.76593"
       y="33.925999"
       id="text7"
       transform="scale(1.0420921,0.95960808)"><tspan
         sodipodi:role="line"
         id="tspan7"
         style="font-style:normal;font-variant:normal;font-weight:normal;font-stretch:normal;line-height:0.8;font-family:'Aldo the Apache';-inkscape-font-specification:'Aldo the Apache';fill:#f9f9f9;stroke-width:62.6556"
         x="99.76593"
         y="33.925999">FTC</tspan><tspan
         sodipodi:role="line"
         style="font-style:normal;font-variant:normal;font-weight:normal;font-stretch:normal;line-height:0.8;font-family:'Aldo the Apache';-inkscape-font-specification:'Aldo the Apache';fill:#f9f9f9;stroke-width:62.6556"
         x="99.76593"
         y="66.462402"
         id="tspan9">OPEN</tspan><tspan
         sodipodi:role="line"
         style="font-style:normal;font-variant:normal;font-weight:normal;font-stretch:normal;line-height:0.8;font-family:'Aldo the Apache';-inkscape-font-specification:'Aldo the Apache';fill:#f9f9f9;stroke-width:62.6556"
         x="99.76593"
         y="98.998802"
         id="tspan8">ALLIANCE</tspan></text>
    <path
       id="path1-1"
       style="fill:#ff6600;stroke-width:25"
       d="m 50.000105,40.000089 a 10,10 0 0 0 -9.999907,9.99991 10,10 0 0 0 9.999907,9.9999 10,10 0 0 0 9.999906,-9.9999 10,10 0 0 0 -9.999906,-9.99991 z m 0,2.92902 6.123657,3.53519 v 7.0714 l -6.123657,3.53518 -6.123657,-3.53518 v -7.0714 z" />
    <g
       id="text5"
       style="font-size:40.6705px;line-height:0.8;font-family:'Aldo the Apache';-inkscape-font-specification:'Aldo the Apache';fill:#f9f9f9;stroke-width:62.6556"
       transform="scale(1.0420921,0.95960808)"
       aria-label="FTC&#10;OPEN&#10;ALLIANCE">
      <path
         d="m 106.77603,21.573922 v 12.352077 h -6.01717 V 9.182129 l 3.97173,-3.9717287 h 9.75059 v 5.4611267 h -7.70515 v 5.540562 h 7.1094 v 5.361833 z m 27.30564,-10.902395 h -5.42141 v 23.254472 h -6.05689 V 10.671527 h -5.62 V 5.2104003 h 17.0983 z m 13.32515,17.813203 v -3.495121 h 6.03703 v 4.964661 l -3.97173,3.971729 H 136.52428 V 9.1622704 l 4.28947,-3.9518701 h 12.6301 V 16.05322 h -6.03703 v -5.381693 h -4.84551 V 28.48473 Z"
         id="path5" />
      <path
         id="path7"
         d="m 106.79589,98.998802 h -6.03703 V 74.830833 l 4.62707,-4.547629 h 12.55066 v 28.715598 h -6.01717 v -9.432855 h -5.12353 z m 5.12353,-14.893982 v -8.360489 h -5.12353 v 8.360489 z m 8.69808,14.893982 V 70.283204 h 6.01717 v 23.27433 h 8.42007 v 5.441268 z m 17.01886,0 V 70.283204 h 6.01717 v 23.27433 h 8.42007 v 5.441268 z m 27.00776,-5.441268 v 5.441268 h -9.9889 v -5.441268 h 1.98587 V 75.724472 h -1.98587 v -5.441268 h 9.9889 v 5.441268 h -1.98587 v 17.833062 z m 8.61865,5.441268 h -6.03703 V 74.830833 l 4.62707,-4.547629 h 12.55066 v 28.715598 h -6.01717 v -9.432855 h -5.12353 z M 178.3863,84.10482 v -8.360489 h -5.12353 v 8.360489 z m 20.49412,2.661058 V 70.283204 h 5.67957 v 28.715598 h -5.95759 l -5.87816,-16.482674 v 16.482674 h -5.63985 V 70.283204 h 5.95759 z m 19.38203,6.791656 v -3.495121 h 6.03703 v 4.964661 l -3.97173,3.971728 H 207.37992 V 74.235074 l 4.28946,-3.95187 h 12.6301 v 10.842819 h -6.03703 v -5.381692 h -4.8455 v 17.813203 z m 8.43993,-23.27433 h 13.94077 v 5.461127 h -7.98318 v 5.540561 h 7.58601 v 5.361834 h -7.50657 v 6.910808 h 8.10233 v 5.441268 H 226.70238 Z M 100.75886,37.746802 h 17.3366 v 28.715599 h -17.3366 z m 6.03703,23.27433 h 5.2824 V 43.207929 h -5.2824 z m 19.95794,5.441269 h -6.01717 V 41.797965 l 4.34904,-4.051163 h 12.31236 v 21.427476 h -10.64423 z m 4.62706,-12.788967 V 43.207929 h -4.62706 v 10.465505 z m 8.57893,-15.926632 h 13.94077 v 5.461127 h -7.98317 v 5.540562 h 7.586 v 5.361833 h -7.50657 v 6.910808 h 8.10233 v 5.441269 h -14.13936 z m 28.1397,16.482674 V 37.746802 h 5.67957 v 28.715599 h -5.95759 l -5.87816,-16.482674 v 16.482674 h -5.63985 V 37.746802 h 5.95759 z"
         style="fill:#ff6600" />
    </g>
  </g>
  <g
     inkscape:groupmode="layer"
     id="layer5"
     inkscape:label="2STACK-HORIZONTAL"
     style="display:inline"
     transform="translate(200.00002)">
    <rect
       style="display:inline;fill:#000000;stroke:none;stroke-width:3.175;stroke-linecap:square;paint-order:stroke markers fill"
       id="rect3"
       width="365"
       height="100"
       x="-4.8449215e-06"
       y="100"
       sodipodi:insensitive="true" />
    <path
       style="fill:#ff6600;stroke-width:25"
       d="m 55.000018,135 10,10 24.99999,-25 5,5 v -20 h -20 l 5,5 z"
       id="path2-1-3"
       sodipodi:nodetypes="cccccccc" />
    <path
       style="fill:#f9f9f9;stroke-width:25"
       d="m 50.000008,165 10,10 h -5 v 20 h -10 v -20 h -5 z"
       id="path3-94-5" />
    <path
       style="fill:#f9f9f9;stroke-width:25"
       d="m 35.000008,150 -10,10 v -5 H 5.0000082 V 145 H 25.000008 v -5 z"
       id="path3-5-7-6" />
    <path
       id="path1-1-2"
       style="display:inline;fill:#ff6600;stroke-width:25"
       d="M 50.000108,140.00009 A 10,10 0 0 0 40.000198,150 a 10,10 0 0 0 9.99991,9.9999 10,10 0 0 0 9.9999,-9.9999 10,10 0 0 0 -9.9999,-9.99991 z m 0,2.92902 6.12365,3.53519 v 7.0714 l -6.12365,3.53518 -6.12366,-3.53518 v -7.0714 z" />
    <text
       xml:space="preserve"
       style="font-style:normal;font-variant:normal;font-weight:normal;font-stretch:normal;font-size:44.1927px;line-height:1;font-family:'Aldo the Apache';-inkscape-font-specification:'Aldo the Apache';display:none;fill:#ff6600;stroke-width:68.082"
       x="99.679932"
       y="203.20796"
       id="text7-6"
       transform="scale(1.0420921,0.95960808)"><tspan
         sodipodi:role="line"
         style="font-style:normal;font-variant:normal;font-weight:normal;font-stretch:normal;line-height:1;font-family:'Aldo the Apache';-inkscape-font-specification:'Aldo the Apache';fill:#ff6600;stroke-width:68.082"
         x="99.679932"
         y="203.20796"
         id="tspan8-1">OPEN ALLIANCE</tspan></text>
    <text
       xml:space="preserve"
       style="font-size:77.8977px;line-height:1;font-family:'Aldo the Apache';-inkscape-font-specification:'Aldo the Apache';display:none;fill:#ffffff;stroke-width:120.007"
       x="103.09821"
       y="160"
       id="text1"><tspan
         sodipodi:role="line"
         id="tspan1"
         style="fill:#ffffff;stroke-width:120.007"
         x="103.09821"
         y="160">FTC</tspan></text>
    <path
       d="m 100.75885,172.0055 h 18.83801 v 31.20246 h -18.83801 z m 6.55986,25.28996 h 5.73987 v -19.35588 h -5.73987 z m 21.68636,5.9125 h -6.53828 v -26.80045 l 4.72569,-4.40201 h 13.37865 v 23.28316 h -11.56606 z m 5.02778,-13.89653 v -11.37185 h -5.02778 v 11.37185 z m 9.3219,-17.30593 h 15.14808 v 5.93408 h -8.67454 v 6.02039 h 8.24297 v 5.82619 h -8.15666 v 7.5093 h 8.80402 v 5.9125 h -15.36387 z m 30.57668,17.91013 V 172.0055 h 6.17144 v 31.20246 h -6.47354 l -6.38722,-17.91013 v 17.91013 h -6.12829 V 172.0055 h 6.47354 z m 25.87258,13.29233 h -6.55985 v -26.26099 l 5.02778,-4.94147 h 13.63759 v 31.20246 h -6.53827 v -10.24977 h -5.56725 z m 5.56725,-16.18385 v -9.08453 h -5.56725 v 9.08453 z m 9.45137,16.18385 V 172.0055 h 6.53827 v 25.28996 h 9.14927 v 5.9125 z m 18.49274,0 V 172.0055 h 6.53828 v 25.28996 h 9.14927 v 5.9125 z m 29.34672,-5.9125 v 5.9125 h -10.85396 v -5.9125 h 2.15784 V 177.918 h -2.15784 v -5.9125 h 10.85396 v 5.9125 h -2.15784 v 19.37746 z m 9.36505,5.9125 h -6.55985 v -26.26099 l 5.02778,-4.94147 h 13.63759 v 31.20246 h -6.53827 v -10.24977 h -5.56725 z m 5.56725,-16.18385 v -9.08453 h -5.56725 v 9.08453 z m 22.26897,2.89152 V 172.0055 h 6.17144 v 31.20246 h -6.47354 l -6.38722,-17.91013 v 17.91013 h -6.12829 V 172.0055 h 6.47354 z m 21.06058,7.37983 v -3.79781 h 6.55986 v 5.39462 l -4.3157,4.31569 h -14.06916 v -26.90835 l 4.66095,-4.29411 h 13.72391 v 11.78184 h -6.55986 v -5.84776 h -5.26514 v 19.35588 z m 9.17085,-25.28996 h 15.14809 v 5.93408 h -8.67455 v 6.02039 h 8.24298 v 5.82619 h -8.15666 v 7.5093 h 8.80401 v 5.9125 h -15.36387 z"
       id="text6"
       style="font-size:44.1927px;line-height:1;font-family:'Aldo the Apache';-inkscape-font-specification:'Aldo the Apache';fill:#ff6600;stroke-width:68.082"
       transform="scale(1.0420921,0.95960808)"
       aria-label="OPEN ALLIANCE" />
    <path
       d="M 116.52492,136.34162 V 160 h -11.52491 v -47.39284 l 7.6072,-7.60719 h 18.67567 v 10.45989 h -14.75796 v 10.61204 h 13.61688 v 10.26972 z M 168.8244,115.45986 H 158.44057 V 160 H 146.8396 v -44.54014 h -10.76419 v -10.45989 h 32.74899 z m 25.52214,34.11828 v -6.69433 h 11.56294 v 9.50899 L 198.30228,160 h -24.79946 v -47.43087 l 8.21577,-7.56916 h 24.19089 v 20.76764 h -11.56294 v -10.30775 h -9.28078 v 34.11828 z"
       id="text8"
       style="font-size:77.8977px;line-height:1;font-family:'Aldo the Apache';-inkscape-font-specification:'Aldo the Apache';fill:#ffffff;stroke-width:120.007"
       aria-label="FTC" />
  </g>
  <g
     inkscape:groupmode="layer"
     id="layer2"
     inkscape:label="SHORT-HORIZONTAL"
     style="display:inline"
     transform="translate(200.00002)">
    <rect
       style="display:inline;fill:#000000;stroke:none;stroke-width:3.175;stroke-linecap:square;paint-order:stroke markers fill"
       id="rect4"
       width="370"
       height="100"
       x="-4.8449215e-06"
       y="200" />
    <path
       style="fill:#ff6600;stroke-width:25"
       d="m 55.000001,235.00002 10,10 25,-25 4.999995,5 v -20 H 75.000001 l 5,5 z"
       id="path2-1-5"
       sodipodi:nodetypes="cccccccc" />
    <path
       style="fill:#f9f9f9;stroke-width:25"
       d="m 50.000002,265.00002 9.999999,10 h -5 v 20 h -10 v -20 h -5 z"
       id="path3-94-9" />
    <path
       style="fill:#f9f9f9;stroke-width:25"
       d="m 35.000002,250.00002 -10.000001,10 v -5 H 5.0000028 v -10 H 25.000001 v -5 z"
       id="path3-5-7-4" />
    <text
       xml:space="preserve"
       style="font-size:113.551px;line-height:1;font-family:'Aldo the Apache';-inkscape-font-specification:'Aldo the Apache';display:none;fill:#f9f9f9;stroke-width:174.933"
       x="102.22774"
       y="290.17322"
       id="text2"><tspan
         sodipodi:role="line"
         id="tspan2"
         style="fill:#f9f9f9;stroke-width:174.933"
         x="102.22774"
         y="290.17322">FTCOA</tspan></text>
    <path
       id="text10"
       style="font-size:113.551px;font-family:'Aldo the Apache';-inkscape-font-specification:'Aldo the Apache';fill:#f9f9f9;stroke-width:174.933"
       d="m 116.08871,210 -11.08873,11.08924 v 69.08416 h 16.79949 v -34.48679 h 19.84944 v -14.97014 h -19.84944 v -15.46882 h 21.5129 V 210 Z m 34.20928,0 v 15.24765 h 15.69103 v 64.92575 h 16.9106 v -64.92575 h 15.13654 V 210 Z m 66.53392,0 -11.97601,11.03343 v 69.13997 h 36.15025 l 11.08873,-11.08925 v -13.86117 h -16.8553 v 9.75858 H 221.7112 v -49.73391 h 13.52838 v 15.02544 h 16.8553 V 210 Z" />
    <path
       id="path15"
       style="font-size:113.551px;font-family:'Aldo the Apache';-inkscape-font-specification:'Aldo the Apache';fill:#ff6600;stroke-width:174.933"
       d="m 258.80351,210 v 80.1734 h 48.40377 V 210 Z m 68.69607,0 -12.91859,12.6969 v 67.4765 h 16.8553 v -26.33638 h 14.30507 v 26.33638 h 16.79949 V 210 Z m -51.84077,15.24765 h 14.74846 v 49.73391 h -14.74846 z m 55.77748,0 h 14.30507 v 23.34224 h -14.30507 z" />
    <path
       id="path1-6"
       style="fill:#ff6600;stroke-width:25"
       d="M 49.999907,240.0001 A 10,10 0 0 0 40,250.00001 a 10,10 0 0 0 9.999907,9.9999 10,10 0 0 0 9.999906,-9.9999 10,10 0 0 0 -9.999906,-9.99991 z m 0,2.92902 6.123657,3.53519 v 7.0714 l -6.123657,3.53518 -6.123657,-3.53518 v -7.0714 z" />
  </g>
  <g
     inkscape:groupmode="layer"
     id="layer6"
     inkscape:label="SHORT-VERTICAL"
     transform="translate(200.00002)">
    <rect
       style="display:inline;fill:#000000;stroke:none;stroke-width:3.175;stroke-linecap:square;paint-order:stroke markers fill"
       id="rect5"
       width="100"
       height="140"
       x="-100.00002"
       y="2.3706056e-07" />
    <path
       style="display:inline;fill:#ff6600;stroke-width:25"
       d="m -45.00002,34.999985 10,10 25,-25 5.0000003,5 v -20 H -25.00002 l 5,5 z"
       id="path2-1-5-2"
       sodipodi:nodetypes="cccccccc" />
    <path
       style="display:inline;fill:#f9f9f9;stroke-width:25"
       d="m -50.00001,64.999985 9.99999,10 h -5 v 20 h -10 v -20 h -5 z"
       id="path3-94-9-2" />
    <path
       style="display:inline;fill:#f9f9f9;stroke-width:25"
       d="m -65.00001,49.999985 -10.00001,10 v -5 h -19.999988 v -10 h 19.999988 v -5 z"
       id="path3-5-7-4-8" />
    <path
       id="path1-6-9"
       style="display:inline;fill:#ff6600;stroke-width:25"
       d="m -50.00011,40.000065 a 10,10 0 0 0 -9.99991,9.99991 10,10 0 0 0 9.99991,9.9999 10,10 0 0 0 9.99991,-9.9999 10,10 0 0 0 -9.99991,-9.99991 z m 0,2.92902 6.12366,3.53519 v 7.0714 l -6.12366,3.53518 -6.12366,-3.53518 v -7.0714 z" />
    <text
       xml:space="preserve"
       style="font-size:39.6815px;line-height:1;font-family:'Aldo the Apache';-inkscape-font-specification:'Aldo the Apache';display:none;fill:#ffffff;stroke-width:61.132"
       x="-95.968803"
       y="133.0173"
       id="text2-4"><tspan
         sodipodi:role="line"
         id="tspan2-5"
         style="fill:#ffffff;stroke-width:61.132"
         x="-95.968803"
         y="133.0173">FTCOA</tspan></text>
    <path
       id="text10-0"
       style="font-size:113.551px;font-family:'Aldo the Apache';-inkscape-font-specification:'Aldo the Apache';display:inline;fill:#f9f9f9;stroke-width:61.1319"
       d="m -91.12496,104.99998 -3.875058,3.87524 v 24.14208 h 5.870728 v -12.05172 h 6.93657 v -5.23145 h -6.93657 v -5.40572 h 7.51788 v -5.32843 z m 11.95474,0 v 5.32843 h 5.48338 v 22.68889 h 5.90956 v -22.68889 h 5.2896 v -5.32843 z m 23.25089,0 -4.18513,3.85573 v 24.16159 h 12.63303 l 3.87506,-3.87523 v -4.84392 h -5.89024 v 3.41023 h -4.72761 v -17.37997 h 4.72761 v 5.25078 h 5.89024 v -10.57921 z" />
    <path
       id="path15-3"
       style="font-size:113.551px;font-family:'Aldo the Apache';-inkscape-font-specification:'Aldo the Apache';display:inline;fill:#ff6600;stroke-width:61.1319"
       d="m -41.25198,104.99998 v 28.01732 h 16.91513 v -28.01732 z m 24.00646,0 -4.51452,4.43705 v 23.58027 h 5.89024 v -9.20348 h 4.99904 v 9.20348 h 5.8707303 v -28.01732 z m -18.11623,5.32843 h 5.15399 v 17.37997 h -5.15399 z m 19.49195,0 h 4.99904 v 8.15716 h -4.99904 z" />
  </g>
  <metadata
     id="metadata2">
    <rdf:RDF>
      <cc:Work
         rdf:about="">
        <dc:title>FTC Open Alliance Official Logo Set</dc:title>
        <dc:creator>
          <cc:Agent>
            <dc:title>Hamid Hussain</dc:title>
          </cc:Agent>
        </dc:creator>
        <dc:publisher>
          <cc:Agent>
            <dc:title>Electric Mayhem Robotics, FTC Open Alliance</dc:title>
          </cc:Agent>
        </dc:publisher>
      </cc:Work>
    </rdf:RDF>
  </metadata>
</svg>
